<?xml version="1.0" encoding="utf-8"?>
<!-- Svg Vector Icons : http://www.onlinewebfonts.com/icon -->
<!DOCTYPE svg PUBLIC "-//W3C//DTD SVG 1.1//EN" "http://www.w3.org/Graphics/SVG/1.1/DTD/svg11.dtd">
<svg version="1.1" xmlns="http://www.w3.org/2000/svg" xmlns:xlink="http://www.w3.org/1999/xlink" x="0px" y="0px" viewBox="0 0 256 256" enable-background="new 0 0 256 256" xml:space="preserve">
<metadata> Svg Vector Icons : http://www.onlinewebfonts.com/icon </metadata>
<g><g><g><path fill="#000000" d="M102.5,11.7l-1.7,1.7v18.5v18.5H87.7c-7.2,0-14.5,0.3-16.1,0.5c-8.9,1.6-16.4,8.2-19.8,17.3c-0.9,2.6-1,4.1-1.2,17.7l-0.2,14.9H31.9H13.4l-1.7,1.7c-1.9,1.9-2.1,3.6-0.8,5.8c0.5,0.8,1.3,1.6,2,1.9c0.8,0.3,7.4,0.5,19.4,0.5h18.2V128v17.2H31.9H13.4l-1.7,1.7c-2.3,2.3-2.3,4.3,0,6.6l1.7,1.7h18.5h18.5v13.1c0,7.2,0.3,14.5,0.5,16.1c1.2,6.6,6.3,14,12,17.3c5.7,3.3,6.8,3.5,23,3.7l14.8,0.2v18.5v18.5l1.7,1.7c1.2,1.2,2.1,1.7,3.3,1.7s2.1-0.4,3.3-1.7l1.7-1.7v-18.5v-18.5H128h17.2v18.5v18.5l1.7,1.7c2.3,2.3,4.3,2.3,6.6,0l1.7-1.7v-18.5v-18.5h13.1c7.2,0,14.5-0.3,16.1-0.5c4.6-0.8,9.8-3.6,13.2-6.9c3.2-3.2,5-5.9,6.6-10.3c1-2.7,1.1-4,1.3-17.8l0.2-14.9h18.5h18.5l1.7-1.7c1.9-1.9,2.1-3.6,0.8-5.8c-0.4-0.8-1.3-1.6-2-1.9c-0.8-0.3-7.4-0.5-19.4-0.5h-18.2V128v-17.2h18.5h18.5l1.7-1.7c2.3-2.3,2.3-4.3,0-6.6l-1.7-1.7h-18.5h-18.5V87.7c0-7.2-0.3-14.5-0.5-16.1c-1.2-6.6-6.3-14-12-17.3c-5.7-3.3-6.8-3.5-23-3.7l-14.9-0.2V31.9V13.4l-1.7-1.7c-1.2-1.2-2.1-1.7-3.3-1.7s-2,0.5-3.3,1.7l-1.7,1.7v18.5v18.5H128h-17.2V32.2c0-16.1-0.1-18.4-0.8-19.7C108.2,9.6,105,9.2,102.5,11.7z M176.2,66.4c6,1.8,11.1,6.5,13.5,12.5l1.1,2.7v46.6v46.6l-1.1,2.7c-2.4,6-7.5,10.6-13.5,12.5c-3.1,0.9-4.8,1-48,1c-43.2,0-44.9-0.1-48-1c-6-1.8-11.1-6.5-13.5-12.5l-1.1-2.7v-46.6V81.6l1.1-2.7c2.4-5.9,7.5-10.6,13.4-12.5c2.8-0.9,5.1-0.9,47.9-0.9C171.5,65.4,173.2,65.4,176.2,66.4z"/><path fill="#000000" d="M89.7,77.4c-4.8,1.1-9.1,4.7-11.3,9.4l-1.3,2.8V128v38.4l1.3,2.8c1.7,3.6,4.8,6.7,8.4,8.4l2.8,1.3H128h38.4l2.8-1.3c3.6-1.7,6.7-4.8,8.4-8.4l1.3-2.8V128V89.6l-1.3-2.8c-1.7-3.6-4.8-6.7-8.4-8.4l-2.8-1.3L129,77C108.1,77,90.7,77.2,89.7,77.4z"/></g></g></g>
</svg>