<?xml version="1.0" encoding="utf-8"?>
<!-- Svg Vector Icons : http://www.onlinewebfonts.com/icon -->
<!DOCTYPE svg PUBLIC "-//W3C//DTD SVG 1.1//EN" "http://www.w3.org/Graphics/SVG/1.1/DTD/svg11.dtd">
<svg version="1.1" xmlns="http://www.w3.org/2000/svg" xmlns:xlink="http://www.w3.org/1999/xlink" x="0px" y="0px" viewBox="0 0 256 256" enable-background="new 0 0 256 256" xml:space="preserve">
<metadata> Svg Vector Icons : http://www.onlinewebfonts.com/icon </metadata>
<g><g><g><path fill="#000000" d="M116.3,10.2c-23,1.9-38.3,10.8-47,27.3l-2.4,4.7l0.5,4.9c1.7,15,9.5,31.5,22.4,47.4c2.2,2.7,4,5,4,5.2c0,0.1-0.9,1.5-2,3c-1.1,1.5-2.1,3-2.2,3.3c-0.1,0.3-14.1-7.3-33.5-18.1C37.8,77.6,22.7,69.1,22.6,69c-0.5-0.3-7.1,13.1-9,18c-2.8,7.7-3.7,12-3.6,19.7c0,5.3,0.2,7.4,1,10.3c1.5,5.5,3.6,10,6.7,14.8c2.6,3.9,3.1,4.4,5.9,5.8c14.3,7.1,36.3,8.9,60.4,5l1.9-0.3l1.7,3.6c0.9,2,1.7,3.7,1.7,3.9c0,0.2-15,8.8-33.3,19.2c-18.3,10.4-33.3,19-33.3,19.2c0,0.7,7.9,12.2,10.9,15.6C45.5,218.2,60,225,76.7,224l4.9-0.3l3.9-2.6c5-3.5,12.3-10.7,16.7-16.5c6-8,12-19.1,15.7-29c1.3-3.6,1.6-4.1,2.5-3.8c0.6,0.1,2.5,0.4,4.3,0.6l3.3,0.3v36.9v36.9h2.2c4.9,0,15-1,20.3-2.1c17.1-3.5,28.9-11.8,36.1-25.7l2.4-4.6l-0.5-4.7c-0.6-5.1-2.1-11.6-4.1-16.7c-3.3-9-10.7-21.3-18.4-30.9c-2.8-3.5-3.9-5.2-3.6-5.6c0.2-0.4,1.2-1.8,2.2-3.3c1-1.5,1.8-2.7,1.9-2.8c0-0.1,15,8.2,33.2,18.4c18.2,10.2,33.4,18.4,33.7,18.3c1.1-0.4,7.9-14.7,9.6-20.2c2.4-7.8,2.8-10.2,2.8-17.3c0-5-0.2-7.3-1-10c-1.5-5.4-3.6-10-6.7-14.8c-2.6-4-3.1-4.4-5.9-5.8c-6.6-3.2-15.9-5.6-25.9-6.7c-6.7-0.7-20.4-0.3-28.2,0.8c-8.9,1.2-8.1,1.5-10-2.7c-0.9-1.9-1.6-3.7-1.5-3.7c0.1-0.1,15.1-8.6,33.2-19s33.1-18.9,33.2-19c0.3-0.3-4.1-7-7.6-11.8C212.8,39,198,31.1,179.8,32l-5.3,0.3l-3.8,2.6c-12.6,8.6-24.5,24.9-32.1,44.5c-1.8,4.5-2.2,5.2-3,5c-0.5-0.1-2.4-0.4-4.3-0.6l-3.4-0.3V46.6V9.7l-3.6,0C122.5,9.8,118.8,10,116.3,10.2z M133.4,106.5c3.7,1,6.6,2.6,9.6,5.5c7.3,6.8,9.2,17,4.8,26.1c-0.6,1.2-2.5,3.7-4.3,5.5c-4.9,4.9-10.1,7-16.8,6.6c-15.8-1-25.4-17.3-18.7-31.8c1.5-3.3,6.9-8.7,10-10.2C122.9,105.9,128.8,105.2,133.4,106.5z"/></g></g></g>
</svg>