<?xml version="1.0" encoding="utf-8"?>
<!-- Svg Vector Icons : http://www.onlinewebfonts.com/icon -->
<!DOCTYPE svg PUBLIC "-//W3C//DTD SVG 1.1//EN" "http://www.w3.org/Graphics/SVG/1.1/DTD/svg11.dtd">
<svg version="1.1" xmlns="http://www.w3.org/2000/svg" xmlns:xlink="http://www.w3.org/1999/xlink" x="0px" y="0px" viewBox="0 0 256 256" enable-background="new 0 0 256 256" xml:space="preserve">
<metadata> Svg Vector Icons : http://www.onlinewebfonts.com/icon </metadata>
<g><g><g><path fill="#000000" d="M115.9,10.5c-30.7,3.1-59.8,18.8-79.6,43.1C11,84.7,3.4,126.4,16,164.8c11.6,35.6,39.5,63.5,75.2,75.2c24.6,8,49,8.1,73.5,0.1c26.9-8.8,49-26.3,64.2-50.8c12.9-20.8,19.1-47.7,16.7-72.2c-3.1-30.6-18.1-59.6-40.9-78.7C179.7,17.3,147.8,7.3,115.9,10.5z M123.6,46.1v26.8l-6.9-0.3c-10.2-0.5-27.2-2.7-28.3-3.7c-1-0.9,4.8-16.6,9.3-25.1c4.6-8.6,11.2-16.7,16.6-20.4c2.2-1.5,7.8-4.2,8.9-4.2C123.4,19.2,123.6,31.3,123.6,46.1z M138.2,21.5c6,2.8,13.1,10.3,18.3,19.2c5,8.6,12.7,28.4,11.3,29.3c-0.4,0.2-4.2,0.8-8.4,1.3c-7.5,0.8-10.2,1-21.8,1.7l-5.4,0.3V46.3V19.2l1.3,0.3C134.2,19.7,136.4,20.6,138.2,21.5z M98.8,26.2c-7.7,9.5-14.2,22.5-18.8,37.5l-1,3.2l-2.2-0.3c-5.5-0.9-25.8-8.4-29.3-10.9c-1-0.7-0.9-1,4.2-5.9c13-12.5,27.3-21.1,44.2-26.2c2.7-0.8,5.2-1.5,5.6-1.5C101.9,21.9,100.7,23.9,98.8,26.2z M162.9,24.5c10.9,3.6,21.8,9.5,31.3,16.6c4.6,3.6,15.5,13.7,16.3,15.4c0.5,1-0.7,1.7-9.6,5.2c-4.9,1.9-17.8,5.7-21.6,6.4l-1.9,0.3l-2.8-8.6c-4.5-13.6-11-26-18.1-34.5l-2.9-3.4l1.9,0.4C156.4,22.4,159.8,23.5,162.9,24.5z M46.7,65.1c6.9,3.3,13.9,6,22.9,8.6c3.7,1.1,6.8,2.1,6.9,2.1c0.1,0.1-0.4,3.3-1.2,7.2c-2.1,10.9-4.1,29.8-4.2,38.6v2.1H44.9H18.6l0.3-3.7c1.6-17.8,6.9-34.3,15.6-48.7c2.5-4,5.9-8.9,6.3-8.9C41,62.4,43.6,63.6,46.7,65.1z M219.5,68.2c9.9,15.4,15.7,32.6,17.5,51.7l0.4,3.7h-26.3h-26.2v-2.1c-0.1-8.5-2-27.4-4-38c-0.9-4.5-1.1-6.6-0.7-6.7c0.3-0.1,3.3-0.9,6.6-1.6c7.4-1.8,18.5-5.6,24.8-8.5c2.7-1.2,5-2.2,5.2-2.2C216.9,64.6,218.2,66.2,219.5,68.2z M94.4,79.1c10,1.5,19.5,2.5,25.3,2.5h3.9v21v21h-21.9H79.7l0.3-6.5c0.6-9.9,1.9-21.5,3.4-29.6c1.4-7.4,1.9-9.8,2.1-9.8C85.6,77.7,89.6,78.3,94.4,79.1z M170.8,79.2c0.2,0.3,0.9,4,1.7,8.4c1.6,9.1,2.8,19.7,3.3,29.4l0.4,6.7h-21.9h-21.9v-20.7V82.2l4.5-0.3c14-0.9,22.5-1.6,26.6-2.2C169.3,78.7,170.5,78.7,170.8,79.2z M71.6,142.6c0.8,12.1,1.7,20.1,3.7,30.3c0.8,4.2,1.4,7.7,1.4,7.9c-0.1,0.2-2.6,1-5.7,1.9c-9.5,2.4-17.5,5.2-28.6,10.1l-1.7,0.8l-2.4-3.4c-10.6-14.9-17.3-33.7-19.2-54.1l-0.4-3.7h26.2h26.2L71.6,142.6z M123.6,154.1v21.8l-10.4,0.6c-5.7,0.4-13.4,1.1-17.1,1.5c-10.1,1.4-10.3,1.4-10.8-0.6c-2.1-7.8-4.4-25.6-5.2-38.4l-0.4-6.7h22h21.9L123.6,154.1L123.6,154.1z M176.1,134.1c0,3.7-1.1,17.9-1.9,23.7c-0.9,7.1-3.4,20.6-4,21.5c-0.3,0.5-2,0.4-7.2-0.4c-7.1-1.1-14.7-1.9-24.7-2.6l-5.9-0.3v-21.8v-21.8h21.9h21.9V134.1z M237,136c-1.8,19.5-7.8,37-17.9,52.1c-5,7.4-4.1,6.9-8.1,4.9c-6.9-3.6-23.8-9.5-30.2-10.7c-2-0.4-2.1-0.5-1.7-1.9c2.6-10.2,5.7-35,5.7-46.1v-2h26.2h26.3L237,136z M123.6,210.9v26l-1.2-0.3c-7.9-2.2-16.5-10.2-23-21.3c-4.7-8.1-12-26.3-10.8-27.1c1.4-0.9,22.2-3,31.3-3.2l3.7-0.1L123.6,210.9L123.6,210.9z M148.5,186c6.2,0.5,16.4,1.9,18.4,2.5c0.8,0.3,0.7,0.9-1,5.8c-3.9,11.2-9,21.2-14.1,28.1c-5.1,6.8-12.4,12.5-18.2,14.1l-1.3,0.3v-26v-26l4.8,0.3C139.8,185.3,144.9,185.7,148.5,186z M80.9,195.1c4.8,14.5,11.1,26.7,18.5,35.6l3,3.4l-1.9-0.4c-4.2-0.9-13.7-4.4-19.4-7.1c-11.1-5.2-20-11.5-29.3-20.4c-3-2.9-5.4-5.4-5.4-5.6c0-0.4,8.7-4.1,13.9-5.9c3.9-1.3,16.9-5,18.1-5C78.9,189.8,80,192.2,80.9,195.1z M182.6,191.9c9.5,2.6,25.7,8.8,25.7,9.9c0,0.2-2.1,2.5-4.8,5c-8.6,8.3-18,14.8-28.9,20c-5.7,2.7-15.2,6.2-19.4,7.1l-1.8,0.4l3.5-4.3c6.7-8.3,12.6-19.4,16.8-31.7c1.3-3.6,2.4-6.9,2.5-7.3c0.2-0.4,0.7-0.6,1.2-0.4C178.1,190.6,180.4,191.3,182.6,191.9z"/></g></g></g>
</svg>