<?xml version="1.0" encoding="UTF-8" standalone="no"?>
<!-- Svg Vector Icons : http://www.onlinewebfonts.com/icon -->

<svg
   version="1.1"
   x="0px"
   y="0px"
   viewBox="0 0 256 256"
   enable-background="new 0 0 256 256"
   xml:space="preserve"
   id="svg3"
   sodipodi:docname="globe_web_internet__plus__internet_Traffic.svg"
   inkscape:version="1.4.3 (0d15f75, 2025-12-25)"
   xmlns:inkscape="http://www.inkscape.org/namespaces/inkscape"
   xmlns:sodipodi="http://sodipodi.sourceforge.net/DTD/sodipodi-0.dtd"
   xmlns="http://www.w3.org/2000/svg"
   xmlns:svg="http://www.w3.org/2000/svg"><defs
   id="defs3"><inkscape:path-effect
     effect="offset"
     id="path-effect158"
     is_visible="true"
     lpeversion="1.3"
     linejoin_type="miter"
     unit="mm"
     offset="1"
     miter_limit="4"
     attempt_force_join="false"
     update_on_knot_move="true" /></defs><sodipodi:namedview
   id="namedview3"
   pagecolor="#ffffff"
   bordercolor="#000000"
   borderopacity="0.25"
   inkscape:showpageshadow="2"
   inkscape:pageopacity="0.0"
   inkscape:pagecheckerboard="0"
   inkscape:deskcolor="#d1d1d1"
   inkscape:zoom="0.83007813"
   inkscape:cx="227.68941"
   inkscape:cy="161.43059"
   inkscape:window-width="1920"
   inkscape:window-height="1052"
   inkscape:window-x="-8"
   inkscape:window-y="-8"
   inkscape:window-maximized="1"
   inkscape:current-layer="g157" />
<metadata
   id="metadata1"> Svg Vector Icons : http://www.onlinewebfonts.com/icon </metadata>

<g
   id="g157"><path
     id="path1"
     d="M 127.78125 9.9316406 C 123.80723 9.9232422 119.81953 10.117578 115.83203 10.517578 C 85.132036 13.617578 56.032422 29.317187 36.232422 53.617188 C 10.932422 84.717188 3.3316405 126.41836 15.931641 164.81836 C 27.531641 200.41836 55.432813 228.31758 91.132812 240.01758 C 115.73281 248.01758 140.13281 248.11719 164.63281 240.11719 C 191.53281 231.31719 213.63203 213.81836 228.83203 189.31836 C 241.73203 168.51836 247.9332 141.61719 245.5332 117.11719 C 242.4332 86.517186 227.43281 57.517969 204.63281 38.417969 C 182.75781 19.955469 155.59941 9.9904299 127.78125 9.9316406 z M 123.13281 19.216797 C 123.33281 19.216797 123.5332 31.317187 123.5332 46.117188 L 123.5332 72.917969 L 116.63281 72.617188 C 106.43281 72.117188 89.432031 69.917969 88.332031 68.917969 C 87.332031 68.017969 93.132813 52.318359 97.632812 43.818359 C 102.23281 35.218359 108.83242 27.117969 114.23242 23.417969 C 116.43242 21.917969 122.03281 19.216797 123.13281 19.216797 z M 132.13281 19.216797 L 133.43164 19.517578 C 134.13164 19.717578 136.33281 20.617578 138.13281 21.517578 C 144.13281 24.317578 151.23164 31.816797 156.43164 40.716797 C 159.06113 45.239518 162.43902 52.861264 164.8457 59.201172 L 184.00977 75.830078 C 184.85411 75.630727 185.78056 75.418706 186.73242 75.216797 C 194.13242 73.416797 205.2332 69.616797 211.5332 66.716797 C 214.2332 65.516797 216.53242 64.517578 216.73242 64.517578 C 216.83242 64.617578 218.13164 66.216797 219.43164 68.216797 C 229.33164 83.616797 235.13164 100.81797 236.93164 119.91797 L 237.33203 123.61719 L 211.0332 123.61719 L 204.86133 123.61719 L 204.86133 132.31836 L 210.93164 132.31836 L 237.23242 132.31836 L 236.93164 136.01758 C 235.13164 155.51758 229.1332 173.01719 219.0332 188.11719 C 214.0332 195.51719 214.93164 195.01758 210.93164 193.01758 C 204.03164 189.41758 187.13242 183.51836 180.73242 182.31836 C 178.73242 181.91836 178.6332 181.81797 179.0332 180.41797 C 181.6332 170.21797 184.73242 145.41836 184.73242 134.31836 L 184.73242 132.31836 L 202.77148 132.31836 L 192.72656 123.61719 L 184.83203 123.61719 L 184.83203 121.51758 C 184.81575 120.13385 184.75279 118.47341 184.64844 116.61914 L 184.64844 116.61719 L 178.29102 111.11133 L 178.29102 177.81445 L 170.59766 177.81445 C 170.39788 178.62779 170.23675 179.16245 170.13281 179.31836 C 169.83281 179.81836 168.13164 179.71797 162.93164 178.91797 C 160.31688 178.51286 157.63435 178.14817 154.78906 177.81445 L 144.16406 177.81445 L 144.16406 176.76758 C 142.27889 176.61194 140.30726 176.4636 138.23242 176.31836 L 132.33203 176.01758 L 132.33203 167.3418 L 123.5332 174.96484 L 123.5332 175.91797 L 122.35547 175.98633 L 111.41211 185.4668 C 114.62005 185.23215 117.58355 185.067 119.83203 185.01758 L 123.5332 184.91797 L 123.5332 210.91797 L 123.5332 236.91797 L 122.33203 236.61719 C 114.43203 234.41719 105.83203 226.41836 99.332031 215.31836 C 96.60714 210.62227 93.008866 202.5311 90.699219 196.4043 L 73.900391 181.82812 C 73.037351 182.09799 72.020948 182.40055 70.931641 182.7168 C 61.431641 185.1168 53.432031 187.91836 42.332031 192.81836 L 40.632812 193.61719 L 38.232422 190.2168 C 27.632422 175.3168 20.933203 156.51719 19.033203 136.11719 L 18.632812 132.41797 L 44.832031 132.41797 L 51.138672 132.41797 L 51.138672 123.7168 L 44.832031 123.7168 L 18.533203 123.7168 L 18.832031 120.01758 C 20.432031 102.21758 25.731641 85.718359 34.431641 71.318359 C 36.931641 67.318359 40.332422 62.417969 40.732422 62.417969 C 40.932422 62.417969 43.532812 63.617187 46.632812 65.117188 C 53.532812 68.417187 60.533203 71.116797 69.533203 73.716797 C 73.233203 74.816797 76.331641 75.818359 76.431641 75.818359 C 76.531641 75.918359 76.032422 79.117578 75.232422 83.017578 C 73.132422 93.917578 71.133203 112.81719 71.033203 121.61719 L 71.033203 123.7168 L 53.269531 123.7168 L 63.3125 132.41797 L 71.033203 132.41797 L 71.375 139.40234 L 77.708984 144.88867 L 77.708984 78.185547 L 85.222656 78.185547 C 85.310269 77.881281 85.377833 77.735683 85.425781 77.71875 L 85.427734 77.71875 L 85.429688 77.71875 L 85.431641 77.716797 C 85.486014 77.716797 86.694576 77.895075 88.556641 78.185547 L 111.83594 78.185547 L 111.83594 81.232422 C 114.83336 81.480953 117.48655 81.617188 119.63281 81.617188 L 123.5332 81.617188 L 123.5332 88.773438 L 142.03711 72.742188 C 140.69308 72.825656 139.20649 72.916604 137.5332 73.017578 L 132.13281 73.318359 L 132.13281 46.318359 L 132.13281 19.216797 z M 153.5332 21.917969 L 155.43164 22.318359 C 156.33164 22.418359 159.73203 23.517578 162.83203 24.517578 C 173.73203 28.117578 184.63281 34.017187 194.13281 41.117188 C 198.73281 44.717188 209.63164 54.817578 210.43164 56.517578 C 210.93164 57.517578 209.73203 58.216797 200.83203 61.716797 C 195.93203 63.616797 183.03242 67.417187 179.23242 68.117188 L 177.33203 68.417969 L 174.5332 59.818359 C 170.0332 46.218359 163.53164 33.818359 156.43164 25.318359 L 153.5332 21.917969 z M 101.47266 22.103516 C 101.47697 22.103031 101.48277 22.104923 101.48633 22.105469 L 101.48828 22.105469 C 101.48908 22.105733 101.49339 22.107094 101.49414 22.107422 L 101.49609 22.109375 L 101.49805 22.109375 L 101.5 22.111328 L 101.5 22.113281 L 101.50195 22.115234 L 101.50391 22.117188 C 101.6017 22.294632 100.45429 24.132422 98.732422 26.216797 C 91.032422 35.716797 84.531641 48.716797 79.931641 63.716797 L 78.931641 66.917969 L 76.732422 66.617188 C 71.232422 65.717187 50.931641 58.216797 47.431641 55.716797 C 46.431641 55.016797 46.532812 54.718359 51.632812 49.818359 C 64.632812 37.318359 78.932031 28.717187 95.832031 23.617188 C 98.532031 22.817187 101.03164 22.117187 101.43164 22.117188 C 101.44727 22.109375 101.46186 22.104728 101.47266 22.103516 z M 132.33203 121.36133 L 119.68359 132.31836 L 123.5332 132.31836 L 123.5332 134.75586 L 136.27539 123.7168 L 132.33203 123.7168 L 132.33203 121.36133 z M 111.83594 123.61719 L 111.83594 132.31836 L 117.59375 132.31836 L 117.59375 123.61719 L 111.83594 123.61719 z M 138.40625 123.7168 L 138.40625 132.41797 L 144.16406 132.41797 L 144.16406 123.7168 L 138.40625 123.7168 z M 132.23242 184.81836 L 137.0332 185.11719 C 139.7332 185.31719 144.83164 185.71758 148.43164 186.01758 C 154.63164 186.51758 164.83203 187.91758 166.83203 188.51758 C 167.63203 188.81758 167.53203 189.41836 165.83203 194.31836 C 161.93203 205.51836 156.83242 215.51797 151.73242 222.41797 C 146.63242 229.21797 139.3332 234.91758 133.5332 236.51758 L 132.23242 236.81836 L 132.23242 210.81836 L 132.23242 184.81836 z M 78.332031 189.7168 C 78.832031 189.8168 79.932031 192.21719 80.832031 195.11719 C 85.632031 209.61719 91.932031 221.8168 99.332031 230.7168 L 102.33203 234.11719 L 100.43164 233.7168 C 96.231646 232.8168 86.733203 229.31719 81.033203 226.61719 C 69.933203 221.41719 61.032422 215.1168 51.732422 206.2168 C 48.732422 203.3168 46.332031 200.81719 46.332031 200.61719 C 46.332031 200.21719 55.032422 196.5168 60.232422 194.7168 C 64.132422 193.4168 77.132031 189.7168 78.332031 189.7168 z M 176.96289 190.53906 C 177.0832 190.54219 177.20703 190.56719 177.33203 190.61719 C 178.03203 190.61719 180.3332 191.31797 182.5332 191.91797 C 192.0332 194.51797 208.23242 200.71836 208.23242 201.81836 C 208.23242 202.01836 206.13164 204.31836 203.43164 206.81836 C 194.83164 215.11836 185.4332 221.61836 174.5332 226.81836 C 168.8332 229.51836 159.33281 233.01797 155.13281 233.91797 L 153.33203 234.31836 L 156.83203 230.01758 C 163.53203 221.71758 169.43281 210.61836 173.63281 198.31836 C 174.93281 194.71836 176.03281 191.41758 176.13281 191.01758 C 176.28281 190.71758 176.60195 190.52969 176.96289 190.53906 z " /><path
     fill="#000000"
     d="m 174.51258,174.03575 h -26.56977 v -71.19981 l -26.56977,23.01787 V 95.646206 l 39.88562,-34.553637 39.82369,34.553637 V 125.85381 L 174.51258,102.83594 Z M 81.487419,81.964254 h 26.569771 v 71.199816 l 26.56977,-23.01788 V 160.3538 L 94.741336,194.90743 54.917652,160.3538 v -30.20761 l 26.569767,23.01788 z"
     id="path1-4"
     style="stroke-width:0.576461" /></g></svg>
