<?xml version="1.0" encoding="utf-8"?>
<!-- Svg Vector Icons : http://www.onlinewebfonts.com/icon -->
<!DOCTYPE svg PUBLIC "-//W3C//DTD SVG 1.1//EN" "http://www.w3.org/Graphics/SVG/1.1/DTD/svg11.dtd">
<svg version="1.1" xmlns="http://www.w3.org/2000/svg" xmlns:xlink="http://www.w3.org/1999/xlink" x="0px" y="0px" viewBox="0 0 256 256" enable-background="new 0 0 256 256" xml:space="preserve">
<metadata> Svg Vector Icons : http://www.onlinewebfonts.com/icon </metadata>
<g><g><g><path fill="#000000" d="M121.3,10.7c-8.6,2.3-15.9,9.7-18.1,18.3c-0.6,2.5-0.7,10.5-0.7,62.2l0,59.3l-3.6,2.4c-6.8,4.5-14.2,13.2-17.6,20.7c-3.6,7.9-5.3,18-4.3,26.2c2.4,21.7,17,39,38.1,44.8c4.1,1.2,5.4,1.3,13,1.3c7.2,0,9-0.2,12.4-1.1c21.6-5.8,36.4-23,38.7-45.1c1.3-12.1-2.3-25.1-9.6-35c-3.3-4.5-8.9-9.7-12.9-12.3l-3-1.9v-16.3V118h-10.1h-10.1v23.3v23.3l3,0.8c5.1,1.4,9.5,4,13.5,8c11.3,11.3,12.1,29,1.7,41.5c-3.8,4.5-9.9,8.3-15.8,9.9c-4.1,1.1-11.3,1.1-15.3,0c-16-4.3-25.9-20.2-22.5-36.2c2.3-10.8,11.1-20.2,21.8-23.2l3-0.8V99.7c0-71.9-0.2-67.2,3.1-68.8c0.9-0.4,1.8-0.8,2.2-0.8s1.3,0.3,2.2,0.8c2.5,1.2,3.1,3.1,3.1,9.3v5.4h10.1h10.1v-6.9c0-4.6-0.2-7.8-0.7-9.7c-2.3-8.7-9.6-16.1-18.3-18.3C131,9.7,124.8,9.8,121.3,10.7z"/><path fill="#000000" d="M133.3,61.3v5.1h10.1h10.1v-5.1v-5.1h-10.1h-10.1L133.3,61.3L133.3,61.3z"/><path fill="#000000" d="M133.3,81.8v5.3h10.1h10.1v-5.3v-5.3h-10.1h-10.1L133.3,81.8L133.3,81.8z"/><path fill="#000000" d="M133.3,102.3v5.1h10.1h10.1v-5.1v-5.1h-10.1h-10.1L133.3,102.3L133.3,102.3z"/><path fill="#000000" d="M122.1,175.3c-7.5,2.4-12.6,8.1-14.2,15.7c-1.5,7.1,0.7,13.8,6.3,19c3.9,3.6,7.1,5,12.6,5.3c6.6,0.4,11.5-1.6,16.1-6.4c7.4-7.8,7.5-19.6,0.2-27.7C137.9,175.3,129.4,173,122.1,175.3z"/></g></g></g>
</svg>